<?xml version="1.0" encoding="utf-8"?>
<!-- Generator: Adobe Illustrator 25.0.0, SVG Export Plug-In . SVG Version: 6.00 Build 0)  -->
<svg version="1.1" id="Camada_1" xmlns="http://www.w3.org/2000/svg" xmlns:xlink="http://www.w3.org/1999/xlink" x="0px" y="0px"
	 viewBox="0 0 294.63 81.21" style="enable-background:new 0 0 294.63 81.21;" xml:space="preserve">
<g>
	<path d="M49.93,23.8c0,4.16-0.74,9.33-2.5,15.61c-6.28,21.71-11.46,31.6-22.08,33.17c-0.55,0.09-1.02,0.09-1.48,0.09
		c-3.33,0-5.45-1.57-6.84-3.7c-0.83,3.97-2.22,6.19-5.27,6.19c-0.28,0-0.65,0-1.02-0.09c-3.97-0.55-7.67-2.86-7.67-9.7
		c0-2.03,0.37-4.53,1.11-7.48c1.94-7.48,8.87-34.83,10.26-38.53c1.29-3.6,3.7-9.7,9.33-9.7h0.83c2.03,0.28,3.97,1.48,3.97,5.27
		c0,0.46-0.09,0.83-0.09,1.29c3.6-3.7,8.04-6.38,13.49-6.38h0.28C45.68,9.84,49.93,13.82,49.93,23.8z M36.62,29.89
		c0-1.76-0.65-3.05-2.4-3.05h-0.09c-4.8,0-7.3,8.41-9.52,14.04c-1.57,4.07-4.44,10.9-5.54,18.29c0.18,0.09,0.46,0.18,0.74,0.18h0.28
		c7.39-0.65,12.1-14.32,13.58-18.57C34.59,38.02,36.62,33.03,36.62,29.89z"/>
	<path d="M60.46,31.93c2.12,0,4.16,1.48,4.16,4.16c0,0.37-0.09,0.83-0.18,1.29c-0.46,1.85-1.02,3.7-1.48,5.54
		c-0.74,2.86-1.2,5.82-1.85,8.69c-0.55,2.68-1.2,5.54-1.2,8.22v1.02c0,0.46,0.09,1.02,0.09,1.66c0,1.66-0.28,3.51-1.75,4.53
		c-0.65,0.46-1.29,0.65-2.03,0.65c-1.39,0-2.96-0.65-4.06-1.2c-2.86-1.39-3.33-5.08-3.33-7.95V57.7c0.28-5.91,2.03-11.92,4.16-17.37
		c1.2-3.14,3.33-8.32,7.3-8.41H60.46z M62.59,17.79c2.59,0,4.71,2.12,4.71,4.71v0.18c0,2.49-2.12,4.71-4.62,4.71H62.5
		c-2.59,0-4.8-2.12-4.8-4.62v-0.18c0-2.59,2.12-4.8,4.71-4.8H62.59z"/>
	<path d="M91.05,49.76c0.83,0,1.48,0.28,1.48,1.02c0,0.46-0.28,1.11-1.02,1.94c-2.4,2.96-7.11,9.24-15.24,9.24
		c-8.22,0-10.07-6.1-10.35-9.98v-1.11c0-4.8,2.31-16.91,15.25-18.57c0.37,0,0.65-0.09,1.02-0.09c3.33,0,6.28,2.22,6.74,6.74
		c0,0.37,0.09,0.74,0.09,1.11c0,4.44-2.68,9.89-11.36,10.07c0.83,1.94,2.31,2.59,4.07,2.59c2.96,0,6.56-2.03,7.58-2.59
		C89.84,49.85,90.49,49.76,91.05,49.76z M80.33,40.61c-1.29,0-3.23,1.2-3.42,4.9c0.28,0.09,0.55,0.09,0.92,0.09
		c0.83,0,1.76-0.28,2.68-1.11s1.39-1.48,1.39-2.22c0-0.28-0.09-0.65-0.28-1.02S80.98,40.61,80.33,40.61z"/>
	<path d="M119.78,15.48c7.76,0,16.26,0.65,16.26,4.25v0.09c-0.28,5.54-1.76,7.76-9.7,7.76h-1.02c-3.51,0-7.76-0.09-12.1-0.19
		c-2.96,11.36-6.47,25.87-7.21,31.78c-0.92,8.13-2.12,13.03-6.1,13.03c-0.37,0-0.74,0-1.11-0.09c-3.88-0.74-6.47-6.56-6.47-12.84
		c0-1.85,0.18-3.6,0.65-5.36c1.2-4.62,4.34-16.72,6.93-26.61c-1.39,0.09-2.68,0.19-3.6,0.28c-0.83,0.09-1.57,0.18-2.31,0.18
		c-3.6,0-5.17-1.85-5.17-5.91v-0.28c0.09-4.16,5.45-5.45,14.23-5.82c0.37-1.02,0.55-1.76,0.74-2.22c1.29-3.7,3.7-10.07,9.05-10.07
		c0.37,0,0.65,0.09,0.92,0.09c1.85,0.28,3.7,1.57,3.7,5.27c0,1.39-0.28,3.14-0.83,5.27c-0.09,0.37-0.18,0.83-0.37,1.39H119.78z"/>
	<path d="M144.82,34.51c0,3.05-1.29,6.74-2.03,9.24c-1.29,4.43-4.71,16.17-4.71,20.88v0.19c0,4.71-2.96,5.45-5.17,5.73h-0.37
		c-2.31,0-6.01-2.12-6.01-6.84v-0.46c0.09-1.11,0.18-2.22,0.37-3.14h-0.28c-0.65,0-1.39,0.18-2.4,0.83
		c-0.92,0.65-2.31,1.02-3.7,1.02c-3.7,0-8.04-2.49-8.04-7.95v-0.92c0.74-8.13,6.65-19.96,14.69-19.96c2.22,0,4.34,1.29,5.45,3.23
		c1.39-2.77,4.16-7.21,7.58-7.21c0.46,0,0.83,0,1.29,0.19C143.99,30.08,144.82,32.11,144.82,34.51z M124.49,51.14
		c1.39,0,3.23-3.7,4.9-8.32C129.02,42.37,128.65,42,128,42h-0.19c-2.31,0.28-3.33,3.14-3.6,4.16c-0.28,0.65-0.83,2.12-0.83,3.33
		c0,0.74,0.18,1.29,0.83,1.57C124.31,51.05,124.4,51.14,124.49,51.14z"/>
	<path d="M165.42,37.84c0,1.11-0.37,1.85-0.65,2.31c-0.37,0.55-1.39,1.57-2.4,1.57c-0.46,0-1.02-0.28-1.48-0.92
		c-1.02-1.48-1.39-2.12-1.85-2.12c-0.18,0-0.28,0.09-0.46,0.18c-0.37,0.19-0.55,0.65-0.55,1.29c0,0.55,0.18,1.39,0.46,2.22
		c0.46,1.2,3.33,7.3,3.33,12.2c0,1.29-0.19,2.49-0.74,3.51c-2.5,4.53-5.45,7.11-10.16,7.11c-3.79,0-7.21-3.79-7.21-8.41
		c0-1.02,0.18-2.12,0.55-3.23c1.48-3.97,3.23-4.62,4.43-4.62c0.55,0,1.02,0.09,1.2,0.19c0.65,0.18,2.03,3.33,2.77,3.33h0.09
		c0.09-0.09,0.18-0.28,0.18-0.37c0-0.92-1.39-2.86-1.75-3.7c-0.55-1.02-3.05-5.73-3.05-10.07s4.62-6.74,6.38-7.21
		c1.2-0.37,2.68-0.74,4.06-0.74c1.94,0,3.79,0.74,5.27,2.96C165.05,35.25,165.42,36.73,165.42,37.84z"/>
	<path d="M214.02,12.8c5.27,0,12.93,3.6,12.93,14.41c0,11.83-8.13,50.45-24.02,50.45h-0.55c-12.93-0.74-15.61-10.72-15.61-17.18
		c0-1.66,0.18-3.05,0.37-4.07c1.11-4.53,4.34-9.24,9.33-9.24c0.46,0,0.92,0,1.39,0.09c4.62,0.74,5.36,3.33,5.36,5.08
		c0,0.46,0,0.92-0.09,1.2c-0.18,0.92-0.74,3.33-0.74,5.08c0,1.02,0.18,1.85,0.74,1.85c1.48,0,6.93-13.49,8.59-21.25
		c0.74-3.51,1.66-7.48,1.66-10.62c0-3.33-1.02-5.73-4.25-5.73c-0.37,0-0.74,0-1.11,0.09c-1.11,0.18-2.12,0.28-2.86,0.28
		c-3.14,0-3.88-1.11-3.88-2.4c0-0.55,0.18-1.2,0.37-1.76c0.83-2.03,4.34-5.08,10.72-6.19C212.92,12.8,213.38,12.8,214.02,12.8z"/>
	<path d="M259.58,34.51c0,3.05-1.29,6.74-2.03,9.24c-1.29,4.43-4.71,16.17-4.71,20.88v0.19c0,4.71-2.96,5.45-5.17,5.73h-0.37
		c-2.31,0-6.01-2.12-6.01-6.84v-0.46c0.09-1.11,0.19-2.22,0.37-3.14h-0.28c-0.65,0-1.39,0.18-2.4,0.83
		c-0.92,0.65-2.31,1.02-3.7,1.02c-3.7,0-8.04-2.49-8.04-7.95v-0.92c0.74-8.13,6.65-19.96,14.69-19.96c2.22,0,4.34,1.29,5.45,3.23
		c1.39-2.77,4.16-7.21,7.58-7.21c0.46,0,0.83,0,1.29,0.19C258.74,30.08,259.58,32.11,259.58,34.51z M239.25,51.14
		c1.39,0,3.23-3.7,4.9-8.32c-0.37-0.46-0.74-0.83-1.39-0.83h-0.18c-2.31,0.28-3.33,3.14-3.6,4.16c-0.28,0.65-0.83,2.12-0.83,3.33
		c0,0.74,0.18,1.29,0.83,1.57C239.06,51.05,239.16,51.14,239.25,51.14z M250.15,26.2c-0.92,0-1.85-0.65-2.4-2.22
		c-0.09-0.37-0.18-0.74-0.18-1.2c0-2.77,3.14-5.82,5.08-5.91h0.28c2.5,0,3.05,1.57,3.05,2.68c0,0.65-0.09,1.11-0.28,1.2
		c-0.46,0.37-2.22,2.12-3.33,3.97C251.81,25.55,250.98,26.2,250.15,26.2z"/>
	<path d="M276.62,73.2c-2.88,0-5.24-2.36-5.24-5.24v-0.21c0-2.77,2.36-5.24,5.14-5.24h0.21c2.88,0,5.34,2.36,5.34,5.14v0.21
		c0,2.88-2.36,5.34-5.24,5.34H276.62z M278.99,57.47c-2.36,0-4.62-1.64-4.62-4.62c0-0.41,0.1-0.92,0.21-1.44
		c0.51-2.06,1.13-4.11,1.64-6.17c0.82-3.19,1.34-6.47,2.06-9.66c0.62-2.98,1.34-6.17,1.34-9.15v-1.13c0-0.51-0.1-1.13-0.1-1.85
		c0-1.85,0.31-3.91,1.95-5.04c0.72-0.51,1.44-0.72,2.26-0.72c1.54,0,3.29,0.72,4.52,1.34c3.19,1.54,3.7,5.65,3.7,8.84v0.92
		c-0.31,6.58-2.26,13.26-4.62,19.32c-1.34,3.49-3.7,9.25-8.12,9.35H278.99z"/>
</g>
</svg>
